<?xml version="1.0" encoding="UTF-8" standalone="no"?>
<!DOCTYPE svg PUBLIC "-//W3C//DTD SVG 1.1//EN" "http://www.w3.org/Graphics/SVG/1.1/DTD/svg11.dtd">
<svg version="1.1" xmlns="http://www.w3.org/2000/svg" xmlns:xlink="http://www.w3.org/1999/xlink" preserveAspectRatio="xMidYMid meet" viewBox="0 0 682 682" width="682" height="682"><defs><path d="M341 682C152.67 682 0 529.33 0 341C0 152.67 152.67 0 341 0C529.33 0 682 152.67 682 341C682 529.33 529.33 682 341 682Z" id="bkoVM7UBd"></path><linearGradient id="gradientaCKllzimc" gradientUnits="userSpaceOnUse" x1="0" y1="341" x2="682" y2="341"><stop style="stop-color: #00f38d;stop-opacity: 1" offset="0%"></stop><stop style="stop-color: #009eff;stop-opacity: 1" offset="100%"></stop></linearGradient><path d="M503.71 213.45C503.71 188.64 483.52 168.45 458.71 168.45C425.51 168.45 159.91 168.45 126.71 168.45C101.89 168.45 81.71 188.64 81.71 213.45C81.71 235.65 81.71 413.25 81.71 435.45C81.71 460.26 101.89 480.45 126.71 480.45C152.41 480.45 358.03 480.45 383.73 480.45C383.72 481.12 383.71 481.78 383.71 482.45C383.71 540.35 430.81 587.45 488.71 587.45C546.6 587.45 593.71 540.35 593.71 482.45C593.71 429.65 554.52 385.83 503.71 378.53C503.71 345.51 503.71 229.96 503.71 213.45ZM458.71 198.45C466.98 198.45 473.71 205.18 473.71 213.45C473.71 214.05 473.71 217.05 473.71 222.45L111.71 222.45C111.71 217.05 111.71 214.05 111.71 213.45C111.71 205.18 118.44 198.45 126.71 198.45C193.11 198.45 425.51 198.45 458.71 198.45ZM111.71 252.45L473.71 252.45L473.71 282.45L111.71 282.45L111.71 252.45ZM126.71 450.45C118.44 450.45 111.71 443.72 111.71 435.45C111.71 427.25 111.71 386.25 111.71 312.45L473.71 312.45C473.71 352.1 473.71 374.12 473.71 378.53C433.63 384.29 400.79 412.76 388.7 450.45C336.3 450.45 179.11 450.45 126.71 450.45ZM413.71 482.45C413.71 441.1 447.35 407.45 488.71 407.45C530.06 407.45 563.71 441.1 563.71 482.45C563.71 523.81 530.06 557.45 488.71 557.45C447.35 557.45 413.71 523.81 413.71 482.45Z" id="a7l2mVEwN"></path><path d="M485.21 480.24C480.47 475.5 477.84 472.87 477.31 472.34C471.46 466.49 461.96 466.49 456.1 472.34C450.24 478.2 450.24 487.7 456.1 493.56C457.95 495.41 472.75 510.21 474.6 512.06C477.53 514.99 481.37 516.45 485.21 516.45C489.04 516.45 492.88 514.99 495.81 512.06C499.41 508.46 528.21 479.66 531.81 476.06C537.67 470.2 537.67 460.7 531.81 454.84C525.96 448.99 516.46 448.99 510.6 454.85C507.22 458.23 498.75 466.7 485.21 480.24Z" id="b5DjLLnbC"></path><path d="M194.21 372.45C202.49 372.45 209.21 365.74 209.21 357.45C209.21 349.17 202.49 342.45 194.21 342.45C190.46 342.45 160.46 342.45 156.71 342.45C148.42 342.45 141.71 349.17 141.71 357.45C141.71 365.74 148.42 372.45 156.71 372.45C164.21 372.45 190.46 372.45 194.21 372.45Z" id="cKTe7j3Rf"></path><path d="M156.71 390.45C148.42 390.45 141.71 397.17 141.71 405.45C141.71 413.74 148.42 420.45 156.71 420.45C165.21 420.45 233.21 420.45 241.71 420.45C249.99 420.45 256.71 413.74 256.71 405.45C256.71 397.17 249.99 390.45 241.71 390.45C224.71 390.45 165.21 390.45 156.71 390.45Z" id="eGfeq8Xyp"></path></defs><g><g><g><use xlink:href="#bkoVM7UBd" opacity="1" fill="url(#gradientaCKllzimc)"></use><g><use xlink:href="#bkoVM7UBd" opacity="1" fill-opacity="0" stroke="#000000" stroke-width="1" stroke-opacity="0"></use></g></g><g><use xlink:href="#a7l2mVEwN" opacity="1" fill="#ffffff" fill-opacity="1"></use><g><use xlink:href="#a7l2mVEwN" opacity="1" fill-opacity="0" stroke="#000000" stroke-width="1" stroke-opacity="0"></use></g></g><g><use xlink:href="#b5DjLLnbC" opacity="1" fill="#ffffff" fill-opacity="1"></use><g><use xlink:href="#b5DjLLnbC" opacity="1" fill-opacity="0" stroke="#000000" stroke-width="1" stroke-opacity="0"></use></g></g><g><use xlink:href="#cKTe7j3Rf" opacity="1" fill="#ffffff" fill-opacity="1"></use><g><use xlink:href="#cKTe7j3Rf" opacity="1" fill-opacity="0" stroke="#000000" stroke-width="1" stroke-opacity="0"></use></g></g><g><use xlink:href="#eGfeq8Xyp" opacity="1" fill="#ffffff" fill-opacity="1"></use><g><use xlink:href="#eGfeq8Xyp" opacity="1" fill-opacity="0" stroke="#000000" stroke-width="1" stroke-opacity="0"></use></g></g></g></g></svg>